<svg width="14" height="14" viewBox="0 0 14 14" fill="none" xmlns="http://www.w3.org/2000/svg">
<g >
<path d="M3.55636 13.7762L3.09459 13.3176C2.95037 13.1733 2.87093 12.9813 2.87093 12.7761C2.87093 12.571 2.95037 12.3787 3.09459 12.2344L8.32608 7.00313L3.08878 1.76584C2.94457 1.62174 2.86523 1.42949 2.86523 1.22438C2.86523 1.01928 2.94457 0.826917 3.08878 0.682705L3.54771 0.224002C3.84615 -0.0746673 4.33229 -0.0746673 4.63073 0.224002L10.8888 6.45963C11.0329 6.60373 11.1344 6.79575 11.1344 7.00267L11.1344 7.00506C11.1344 7.21029 11.0328 7.4023 10.8888 7.5464L4.64769 13.7762C4.50359 13.9206 4.30577 13.9998 4.10066 14C3.89544 14 3.70035 13.9206 3.55636 13.7762Z" fill="white"/>
</g>
<defs>
<clipPath id="clip0">
<rect width="14" height="14" fill="white" transform="matrix(4.37114e-08 1 1 -4.37114e-08 0 0)"/>
</clipPath>
</defs>
</svg>

