<svg width="14" height="14" viewBox="0 0 14 14" fill="none" xmlns="http://www.w3.org/2000/svg">
<g >
<path d="M10.4436 13.7762L10.9054 13.3176C11.0496 13.1733 11.1291 12.9813 11.1291 12.7761C11.1291 12.571 11.0496 12.3787 10.9054 12.2344L5.67392 7.00313L10.9112 1.76584C11.0554 1.62174 11.1348 1.42949 11.1348 1.22438C11.1348 1.01928 11.0554 0.826917 10.9112 0.682705L10.4523 0.224002C10.1538 -0.0746673 9.66771 -0.0746673 9.36927 0.224002L3.11122 6.45963C2.96712 6.60373 2.86559 6.79575 2.86559 7.00267L2.86559 7.00506C2.86559 7.21029 2.96724 7.4023 3.11122 7.5464L9.35231 13.7762C9.49641 13.9206 9.69423 13.9998 9.89934 14C10.1046 14 10.2997 13.9206 10.4436 13.7762Z" fill="white"/>
</g>
<defs>
<clipPath id="clip0">
<rect width="14" height="14" fill="white" transform="translate(14) rotate(90)"/>
</clipPath>
</defs>
</svg>